<svg width="98" height="13" viewBox="0 0 98 13" fill="none" xmlns="http://www.w3.org/2000/svg">
<path opacity="0.9" d="M11.0127 2.58496H7.17188V13H4.08691V2.58496H0.316406V0.203125H11.0127V2.58496ZM20.6771 8.48242H19.0072V13H15.9223V0.203125H20.9584C22.476 0.203125 23.6625 0.540039 24.518 1.21387C25.3734 1.8877 25.8012 2.83984 25.8012 4.07031C25.8012 4.96094 25.6195 5.69922 25.2563 6.28516C24.8988 6.87109 24.3363 7.3457 23.5688 7.70898L26.2406 12.8682V13H22.9359L20.6771 8.48242ZM19.0072 6.10059H20.9584C21.5443 6.10059 21.9838 5.94824 22.2768 5.64355C22.5756 5.33301 22.725 4.90234 22.725 4.35156C22.725 3.80078 22.5756 3.37012 22.2768 3.05957C21.9779 2.74316 21.5385 2.58496 20.9584 2.58496H19.0072V6.10059ZM38.533 10.6094H34.3055L33.5672 13H30.2713L34.9646 0.203125H37.865L42.5936 13H39.2801L38.533 10.6094ZM35.0438 8.22754H37.7947L36.4148 3.78906L35.0438 8.22754ZM51.4143 9.51953L53.9631 0.203125H57.4084L53.1018 13H49.7268L45.4553 0.203125H48.8742L51.4143 9.51953ZM69.8854 7.57715H65.0338V10.627H70.7643V13H61.9488V0.203125H70.7818V2.58496H65.0338V5.2832H69.8854V7.57715ZM78.7061 10.627H84.0762V13H75.6211V0.203125H78.7061V10.627ZM92.6947 6.10938L94.0746 3.49023H97.1508L94.6459 8.12207L97.2738 13H94.1801L92.6859 10.1875L91.2182 13H88.1068L90.7436 8.12207L88.2475 3.49023H91.3588L92.6947 6.10938Z" fill="white"/>
</svg>
