<svg width="20" height="15" fill="none" xmlns="http://www.w3.org/2000/svg"><path d="M17.945 4.395c.014.153.014.305.014.457 0 4.65-4.125 10.01-11.663 10.01-2.323 0-4.48-.578-6.296-1.58.33.032.647.043.99.043 1.845.004 3.638-.526 5.09-1.503a4.567 4.567 0 01-2.372-.693c-.688-.437-1.199-1.048-1.462-1.746.253.032.508.054.775.054.367 0 .736-.044 1.08-.12-.93-.16-1.764-.593-2.363-1.222-.6-.63-.926-1.417-.925-2.23V5.82c.547.261 1.18.425 1.852.446A3.775 3.775 0 011.322 5a3.124 3.124 0 01-.484-1.662c0-.653.202-1.252.557-1.775C2.425 2.651 3.71 3.54 5.166 4.175c1.456.634 3.052.998 4.682 1.07a3.455 3.455 0 01-.101-.806c0-.462.105-.92.311-1.347.206-.427.508-.815.889-1.141.38-.327.832-.586 1.33-.763a4.691 4.691 0 011.569-.267c1.18 0 2.246.424 2.995 1.11a8.953 8.953 0 002.601-.85c-.306.814-.946 1.503-1.802 1.94A9.306 9.306 0 0020 2.576a8.232 8.232 0 01-2.055 1.819z" fill="#fff"/></svg>