<svg width="98" height="13" fill="none" xmlns="http://www.w3.org/2000/svg"><path opacity=".9" d="M11.013 2.585H7.172V13H4.087V2.585H.317V.203h10.696v2.382zm9.664 5.897h-1.67V13h-3.085V.203h5.036c1.518 0 2.705.337 3.56 1.01.855.675 1.283 1.627 1.283 2.857 0 .89-.181 1.63-.545 2.215-.357.586-.92 1.06-1.687 1.424l2.672 5.16V13h-3.305l-2.259-4.518zm-1.67-2.381h1.951c.586 0 1.026-.153 1.319-.457.299-.311.448-.742.448-1.292 0-.551-.15-.982-.448-1.292-.3-.317-.739-.475-1.319-.475h-1.95v3.516zm19.526 4.508h-4.227L33.567 13h-3.296L34.965.203h2.9L42.594 13H39.28l-.747-2.39zm-3.49-2.381h2.752l-1.38-4.439-1.371 4.439zM51.415 9.52l2.55-9.317h3.444L53.102 13h-3.375L45.455.203h3.42l2.54 9.317zm18.471-1.943h-4.851v3.05h5.73V13H61.95V.203h8.833v2.382h-5.748v2.698h4.851v2.294zm8.821 3.05h5.37V13h-8.455V.203h3.085v10.424zm13.989-4.518l1.38-2.619h3.076l-2.505 4.632L97.274 13H94.18l-1.494-2.813L91.218 13h-3.111l2.637-4.878-2.496-4.632h3.11l1.337 2.62z" fill="#fff"/></svg>