<svg width="32" height="32" viewBox="0 0 32 32" fill="none" xmlns="http://www.w3.org/2000/svg">
<g opacity="0.6">
<path d="M16 5.97339C14.9926 5.97339 14.0079 6.27211 13.1703 6.83177C12.3327 7.39143 11.6799 8.1869 11.2944 9.11759C10.9089 10.0483 10.808 11.0724 11.0045 12.0604C11.2011 13.0484 11.6862 13.9559 12.3985 14.6683C13.1108 15.3806 14.0183 15.8657 15.0064 16.0622C15.9944 16.2587 17.0185 16.1579 17.9491 15.7724C18.8798 15.3868 19.6753 14.734 20.235 13.8964C20.7946 13.0588 21.0933 12.0741 21.0933 11.0667C21.0933 9.71589 20.5567 8.42038 19.6015 7.46519C18.6464 6.51001 17.3508 5.97339 16 5.97339ZM16 14.3823C15.3443 14.3823 14.7032 14.1878 14.158 13.8235C13.6127 13.4592 13.1878 12.9414 12.9368 12.3355C12.6859 11.7297 12.6202 11.063 12.7482 10.4199C12.8761 9.77674 13.1919 9.18596 13.6556 8.72227C14.1192 8.25858 14.71 7.94281 15.3532 7.81487C15.9963 7.68694 16.663 7.7526 17.2688 8.00355C17.8747 8.25449 18.3925 8.67946 18.7568 9.2247C19.1211 9.76994 19.3156 10.411 19.3156 11.0667C19.3132 11.9445 18.9629 12.7856 18.3413 13.4054C17.7198 14.0253 16.8778 14.3734 16 14.3734V14.3823Z" fill="white" fill-opacity="0.3"/>
<path d="M16 1.77783C13.2313 1.78014 10.576 2.878 8.61403 4.83161C6.6521 6.78521 5.54296 9.43582 5.52887 12.2045C5.52887 16.3556 7.85776 19.8312 9.56442 22.3645L9.87554 22.8267C11.5736 25.2877 13.3952 27.6611 15.3333 29.9378L16.0089 30.7289L16.6844 29.9378C18.6223 27.6609 20.4439 25.2875 22.1422 22.8267L22.4533 22.3556C24.1511 19.8223 26.48 16.3556 26.48 12.2045C26.4659 9.43428 25.3555 6.78233 23.3917 4.82847C21.4278 2.87461 18.7702 1.7778 16 1.77783ZM20.9689 21.3334L20.6489 21.8045C19.12 24.0978 17.0933 26.6667 16 27.9378C14.9511 26.6667 12.88 24.0978 11.3511 21.8045L11.04 21.3334C9.46665 18.9867 7.30665 15.7778 7.30665 12.1689C7.30665 11.0273 7.53151 9.89687 7.96839 8.84215C8.40527 7.78743 9.04561 6.82908 9.85287 6.02183C10.6601 5.21458 11.6185 4.57423 12.6732 4.13735C13.7279 3.70047 14.8584 3.47561 16 3.47561C17.1416 3.47561 18.272 3.70047 19.3268 4.13735C20.3815 4.57423 21.3398 5.21458 22.1471 6.02183C22.9543 6.82908 23.5947 7.78743 24.0316 8.84215C24.4685 9.89687 24.6933 11.0273 24.6933 12.1689C24.6933 15.8134 22.5422 19.0223 20.9689 21.3334Z" fill="white" fill-opacity="0.3"/>
</g>
</svg>
