<svg width="32" height="32" fill="none" xmlns="http://www.w3.org/2000/svg"><g opacity=".6" fill="#fff" fill-opacity=".3"><path d="M16 5.973a5.093 5.093 0 100 10.187 5.093 5.093 0 000-10.187zm0 8.41a3.316 3.316 0 113.316-3.316A3.315 3.315 0 0116 14.373v.01z"/><path d="M16 1.778A10.48 10.48 0 005.529 12.204c0 4.152 2.329 7.627 4.035 10.16l.312.463a88.564 88.564 0 005.457 7.11l.676.792.675-.791a88.738 88.738 0 005.458-7.111l.311-.471c1.698-2.534 4.027-6 4.027-10.152A10.48 10.48 0 0016 1.778zm4.969 19.555l-.32.472c-1.529 2.293-3.556 4.862-4.649 6.133-1.049-1.271-3.12-3.84-4.649-6.133l-.311-.472c-1.573-2.346-3.733-5.555-3.733-9.164a8.693 8.693 0 0117.386 0c0 3.644-2.15 6.853-3.724 9.164z"/></g></svg>